<svg xmlns="http://www.w3.org/2000/svg" xmlns:xlink="http://www.w3.org/1999/xlink" width="800" height="521.04"><rect width="800" height="521.04" rx="0" ry="0" class="a"/><svg height="521.04" viewBox="0 0 80 52.104" width="800" xmlns="http://www.w3.org/2000/svg" xmlns:xlink="http://www.w3.org/1999/xlink"><style>@keyframes i{0%{transform:translateX(0)}2.8%{transform:translateX(-80px)}2.9%{transform:translateX(-240px)}6.8%{transform:translateX(-320px)}10.7%{transform:translateX(-480px)}14.7%{transform:translateX(-640px)}18.6%{transform:translateX(-800px)}22.5%{transform:translateX(-960px)}26.4%{transform:translateX(-1200px)}30.3%{transform:translateX(-1280px)}34.2%{transform:translateX(-1360px)}38.1%{transform:translateX(-1440px)}42%{transform:translateX(-1520px)}46%{transform:translateX(-1600px)}49.9%{transform:translateX(-1760px)}53.8%{transform:translateX(-1920px)}57.7%{transform:translateX(-2080px)}61.6%{transform:translateX(-2160px)}65.5%{transform:translateX(-2240px)}69.4%{transform:translateX(-2400px)}73.3%{transform:translateX(-2480px)}77.2%{transform:translateX(-2560px)}81.1%{transform:translateX(-2640px)}85%{transform:translateX(-2720px)}89%{transform:translateX(-2800px)}92.9%{transform:translateX(-2880px)}96.7%{transform:translateX(-2960px)}99.5%{transform:translateX(-3280px)}99.9%{transform:translateX(-3440px)}}.a{fill:#282d35}.c,.d,.e,.f{fill:#6f7783;white-space:pre}.d,.e,.f{fill:#b9c0cb}.e,.f{fill:#d290e4}.f{fill:#a8cc8c}</style><g font-family="Monaco,Consolas,Menlo,'Bitstream Vera Sans Mono','Powerline Symbols',monospace" font-size="1.67"><defs><symbol id="1"><text y="1.67" class="c">┌</text><text x="3.006" y="1.67" class="d">Transmit</text><text x="12.024" y="1.67" class="d">→</text><text x="14.028" y="1.67" class="d">SSH</text><text x="18.036" y="1.67" class="d">Config</text><text x="25.05" y="1.67" class="d">Sync</text></symbol><symbol id="2"><text y="1.67" class="c">│</text></symbol><symbol id="3"><text y="1.67" class="e">◒</text><text x="3.006" y="1.67" class="d">Fetching</text><text x="12.024" y="1.67" class="d">Transmit</text><text x="21.042" y="1.67" class="d">favorites</text></symbol><symbol id="4"><text y="1.67" class="e">◐</text><text x="3.006" y="1.67" class="d">Fetching</text><text x="12.024" y="1.67" class="d">Transmit</text><text x="21.042" y="1.67" class="d">favorites</text></symbol><symbol id="5"><text y="1.67" class="e">◓</text><text x="3.006" y="1.67" class="d">Fetching</text><text x="12.024" y="1.67" class="d">Transmit</text><text x="21.042" y="1.67" class="d">favorites</text></symbol><symbol id="6"><text y="1.67" class="e">◑</text><text x="3.006" y="1.67" class="d">Fetching</text><text x="12.024" y="1.67" class="d">Transmit</text><text x="21.042" y="1.67" class="d">favorites</text></symbol><symbol id="7"><text y="1.67" class="e">◒</text><text x="3.006" y="1.67" class="d">Fetching</text><text x="12.024" y="1.67" class="d">Transmit</text><text x="21.042" y="1.67" class="d">favorites.</text></symbol><symbol id="8"><text y="1.67" class="e">◐</text><text x="3.006" y="1.67" class="d">Fetching</text><text x="12.024" y="1.67" class="d">Transmit</text><text x="21.042" y="1.67" class="d">favorites.</text></symbol><symbol id="9"><text y="1.67" class="e">◓</text><text x="3.006" y="1.67" class="d">Fetching</text><text x="12.024" y="1.67" class="d">Transmit</text><text x="21.042" y="1.67" class="d">favorites.</text></symbol><symbol id="10"><text y="1.67" class="e">◑</text><text x="3.006" y="1.67" class="d">Fetching</text><text x="12.024" y="1.67" class="d">Transmit</text><text x="21.042" y="1.67" class="d">favorites.</text></symbol><symbol id="11"><text y="1.67" class="e">◒</text><text x="3.006" y="1.67" class="d">Fetching</text><text x="12.024" y="1.67" class="d">Transmit</text><text x="21.042" y="1.67" class="d">favorites..</text></symbol><symbol id="12"><text y="1.67" class="e">◐</text><text x="3.006" y="1.67" class="d">Fetching</text><text x="12.024" y="1.67" class="d">Transmit</text><text x="21.042" y="1.67" class="d">favorites..</text></symbol><symbol id="13"><text y="1.67" class="e">◓</text><text x="3.006" y="1.67" class="d">Fetching</text><text x="12.024" y="1.67" class="d">Transmit</text><text x="21.042" y="1.67" class="d">favorites..</text></symbol><symbol id="14"><text y="1.67" class="e">◑</text><text x="3.006" y="1.67" class="d">Fetching</text><text x="12.024" y="1.67" class="d">Transmit</text><text x="21.042" y="1.67" class="d">favorites..</text></symbol><symbol id="15"><text y="1.67" class="f">◇</text><text x="3.006" y="1.67" class="d">Found</text><text x="9.018" y="1.67" class="d">9</text><text x="11.022" y="1.67" class="d">favorites</text></symbol><symbol id="16"><text y="1.67" class="f">◆</text><text x="3.006" y="1.67" class="d">Saved</text><text x="9.018" y="1.67" class="d">to</text><text x="12.024" y="1.67" class="d">/Users/nico/.ssh/config.d/transmit</text></symbol><symbol id="17"><text y="1.67" class="f">◇</text><text x="3.006" y="1.67" class="d">Sync</text><text x="8.016" y="1.67" class="d">Summary</text><text x="16.032" y="1.67" class="c">────────╮</text></symbol><symbol id="18"><text y="1.67" class="c">│</text><text x="24.048" y="1.67" class="c">│</text></symbol><symbol id="19"><text y="1.67" class="c">│</text><text x="3.006" y="1.67" class="d">No</text><text x="6.012" y="1.67" class="d">changes</text><text x="14.028" y="1.67" class="d">detected</text><text x="24.048" y="1.67" class="c">│</text></symbol><symbol id="20"><text y="1.67" class="c">├───────────────────────╯</text></symbol><symbol id="a"><path fill="transparent" d="M0 0h80v24H0z"/></symbol><symbol id="b"><path fill="#6f7683" d="M0 0h1.102v2.171H0z"/></symbol></defs><path class="a" d="M0 0h80v52.104H0z"/><g style="animation-duration:2.072701s;animation-iteration-count:infinite;animation-name:i;animation-timing-function:steps(1,end)"><svg width="3520"><svg><use xlink:href="#a"/><use xlink:href="#b" x="-.004"/></svg><svg x="80"><use xlink:href="#a"/><use xlink:href="#b" x="-.004" y="2.146"/><use xlink:href="#1"/></svg><svg x="160"><use xlink:href="#a"/><use xlink:href="#1"/></svg><svg x="240"><use xlink:href="#a"/><use xlink:href="#1"/><use xlink:href="#2" y="2.171"/></svg><svg x="320"><use xlink:href="#a"/><use xlink:href="#1"/><use xlink:href="#2" y="2.171"/><use xlink:href="#3" y="4.342"/></svg><svg x="400"><use xlink:href="#a"/><use xlink:href="#1"/><use xlink:href="#2" y="2.171"/></svg><svg x="480"><use xlink:href="#a"/><use xlink:href="#1"/><use xlink:href="#2" y="2.171"/><use xlink:href="#4" y="4.342"/></svg><svg x="560"><use xlink:href="#a"/><use xlink:href="#1"/><use xlink:href="#2" y="2.171"/></svg><svg x="640"><use xlink:href="#a"/><use xlink:href="#1"/><use xlink:href="#2" y="2.171"/><use xlink:href="#5" y="4.342"/></svg><svg x="720"><use xlink:href="#a"/><use xlink:href="#1"/><use xlink:href="#2" y="2.171"/></svg><svg x="800"><use xlink:href="#a"/><use xlink:href="#1"/><use xlink:href="#2" y="2.171"/><use xlink:href="#6" y="4.342"/></svg><svg x="880"><use xlink:href="#a"/><use xlink:href="#1"/><use xlink:href="#2" y="2.171"/></svg><svg x="960"><use xlink:href="#a"/><use xlink:href="#1"/><use xlink:href="#2" y="2.171"/><use xlink:href="#3" y="4.342"/></svg><svg x="1040"><use xlink:href="#a"/><use xlink:href="#1"/><use xlink:href="#2" y="2.171"/><use xlink:href="#3" y="4.342"/></svg><svg x="1120"><use xlink:href="#a"/><use xlink:href="#1"/><use xlink:href="#2" y="2.171"/></svg><svg x="1200"><use xlink:href="#a"/><use xlink:href="#1"/><use xlink:href="#2" y="2.171"/><use xlink:href="#4" y="4.342"/></svg><svg x="1280"><use xlink:href="#a"/><use xlink:href="#1"/><use xlink:href="#2" y="2.171"/><use xlink:href="#5" y="4.342"/></svg><svg x="1360"><use xlink:href="#a"/><use xlink:href="#1"/><use xlink:href="#2" y="2.171"/><use xlink:href="#6" y="4.342"/></svg><svg x="1440"><use xlink:href="#a"/><use xlink:href="#1"/><use xlink:href="#2" y="2.171"/><use xlink:href="#7" y="4.342"/></svg><svg x="1520"><use xlink:href="#a"/><use xlink:href="#1"/><use xlink:href="#2" y="2.171"/><use xlink:href="#8" y="4.342"/></svg><svg x="1600"><use xlink:href="#a"/><use xlink:href="#1"/><use xlink:href="#2" y="2.171"/><use xlink:href="#9" y="4.342"/></svg><svg x="1680"><use xlink:href="#a"/><use xlink:href="#1"/><use xlink:href="#2" y="2.171"/></svg><svg x="1760"><use xlink:href="#a"/><use xlink:href="#1"/><use xlink:href="#2" y="2.171"/><use xlink:href="#10" y="4.342"/></svg><svg x="1840"><use xlink:href="#a"/><use xlink:href="#1"/><use xlink:href="#2" y="2.171"/></svg><svg x="1920"><use xlink:href="#a"/><use xlink:href="#1"/><use xlink:href="#2" y="2.171"/><use xlink:href="#7" y="4.342"/></svg><svg x="2000"><use xlink:href="#a"/><use xlink:href="#1"/><use xlink:href="#2" y="2.171"/></svg><svg x="2080"><use xlink:href="#a"/><use xlink:href="#1"/><use xlink:href="#2" y="2.171"/><use xlink:href="#8" y="4.342"/></svg><svg x="2160"><use xlink:href="#a"/><use xlink:href="#1"/><use xlink:href="#2" y="2.171"/><use xlink:href="#9" y="4.342"/></svg><svg x="2240"><use xlink:href="#a"/><use xlink:href="#1"/><use xlink:href="#2" y="2.171"/><use xlink:href="#10" y="4.342"/></svg><svg x="2320"><use xlink:href="#a"/><use xlink:href="#1"/><use xlink:href="#2" y="2.171"/></svg><svg x="2400"><use xlink:href="#a"/><use xlink:href="#1"/><use xlink:href="#2" y="2.171"/><use xlink:href="#11" y="4.342"/></svg><svg x="2480"><use xlink:href="#a"/><use xlink:href="#1"/><use xlink:href="#2" y="2.171"/><use xlink:href="#12" y="4.342"/></svg><svg x="2560"><use xlink:href="#a"/><use xlink:href="#1"/><use xlink:href="#2" y="2.171"/><use xlink:href="#13" y="4.342"/></svg><svg x="2640"><use xlink:href="#a"/><use xlink:href="#1"/><use xlink:href="#2" y="2.171"/><use xlink:href="#14" y="4.342"/></svg><svg x="2720"><use xlink:href="#a"/><use xlink:href="#1"/><use xlink:href="#2" y="2.171"/><use xlink:href="#11" y="4.342"/></svg><svg x="2800"><use xlink:href="#a"/><use xlink:href="#1"/><use xlink:href="#2" y="2.171"/><use xlink:href="#12" y="4.342"/></svg><svg x="2880"><use xlink:href="#a"/><use xlink:href="#1"/><use xlink:href="#2" y="2.171"/><use xlink:href="#13" y="4.342"/></svg><svg x="2960"><use xlink:href="#a"/><use xlink:href="#1"/><use xlink:href="#2" y="2.171"/><use xlink:href="#14" y="4.342"/></svg><svg x="3040"><use xlink:href="#a"/><use xlink:href="#1"/><use xlink:href="#2" y="2.171"/></svg><svg x="3120"><use xlink:href="#a"/><use xlink:href="#1"/><use xlink:href="#2" y="2.171"/><use xlink:href="#15" y="4.342"/></svg><svg x="3200"><use xlink:href="#a"/><use xlink:href="#b" x="-.004" y="6.488"/><use xlink:href="#1"/><use xlink:href="#2" y="2.171"/><use xlink:href="#15" y="4.342"/></svg><svg x="3280"><use xlink:href="#a"/><use xlink:href="#b" x="-.004" y="10.83"/><use xlink:href="#1"/><use xlink:href="#2" y="2.171"/><use xlink:href="#15" y="4.342"/><use xlink:href="#2" y="6.513"/><use xlink:href="#16" y="8.684"/></svg><svg x="3360"><use xlink:href="#a"/><use xlink:href="#b" x="-.004" y="23.856"/><use xlink:href="#1"/><use xlink:href="#2" y="2.171"/><use xlink:href="#15" y="4.342"/><use xlink:href="#2" y="6.513"/><use xlink:href="#16" y="8.684"/><use xlink:href="#2" y="10.855"/><use xlink:href="#17" y="13.026"/><use xlink:href="#18" y="15.197"/><use xlink:href="#19" y="17.368"/><use xlink:href="#18" y="19.539"/><use xlink:href="#20" y="21.71"/></svg><svg x="3440"><use xlink:href="#a"/><use xlink:href="#b" x="-.004" y="30.369"/><use xlink:href="#1"/><use xlink:href="#2" y="2.171"/><use xlink:href="#15" y="4.342"/><use xlink:href="#2" y="6.513"/><use xlink:href="#16" y="8.684"/><use xlink:href="#2" y="10.855"/><use xlink:href="#17" y="13.026"/><use xlink:href="#18" y="15.197"/><use xlink:href="#19" y="17.368"/><use xlink:href="#18" y="19.539"/><use xlink:href="#20" y="21.71"/><use xlink:href="#2" y="23.881"/><text y="27.722" class="c">└</text><text x="3.006" y="27.722" class="d">Sync</text><text x="8.016" y="27.722" class="d">completed</text><text x="18.036" y="27.722" class="d">successfully!</text></svg></svg></g></g></svg></svg>